# xmcd
#
# Track frame offsets:
#	150
#	23404
#	44301
#	65280
#	84141
#	104277
#	127842
#	150523
#	177496
#	196463
#
# Disc length: 2990 seconds
#
# Revision: 1
# Processed by: cddbd v1.5.2PL0 Copyright (c) Steve Scherf et al.
# Submitted via: EZCDAudioConverter 8.0.2.1
#
DISCID=6e0bac0a
DTITLE=Lưu Chí Vỹ - Đời
DYEAR=2011
DGENRE=World Pop
TTITLE0=Quán ốc
TTITLE1=Có trước có sau
TTITLE2=Lạc bước đêm hoang
TTITLE3=Lệ đời
TTITLE4=Nỗi buồn dưới trăng
TTITLE5=Làm lại từ đầu
TTITLE6=Xin đừng trách đa đa
TTITLE7=Dấu chân kỷ niệm
TTITLE8=Giọt lệ đài trang
TTITLE9=Thôi
EXTD=
EXTT0=
EXTT1=
EXTT2=
EXTT3=
EXTT4=
EXTT5=
EXTT6=
EXTT7=
EXTT8=
EXTT9=
PLAYORDER=
